<?xml version="1.0" encoding="utf-8"?>
<svg version="1.1" id="Layer_1" xmlns="http://www.w3.org/2000/svg" xmlns:xlink="http://www.w3.org/1999/xlink" x="0px" y="0px"
	 viewBox="0 0 36 36" style="enable-background:new 0 0 36 36;" xml:space="preserve">
<style type="text/css">
	.st0{fill-rule:evenodd;clip-rule:evenodd;fill:#FFFFFF;}
</style>
<g>
	<g transform="translate(-1609.000000, -1710.000000)">
		<g transform="translate(1602.000000, 1700.000000)">
			<g>
				<path class="st0" d="M21.9,35.1L15,28.3c-0.7-0.7-0.7-1.7,0-2.4c0,0,0,0,0,0c0.7-0.7,1.8-0.7,2.4,0l4.5,4.4
					c0.4,0.4,1.1,0.4,1.6,0l9.1-9c0.7-0.7,1.8-0.7,2.4,0c0.7,0.6,0.7,1.7,0,2.4c0,0,0,0,0,0L23.5,35.1C23,35.5,22.3,35.5,21.9,35.1z
					"/>
			</g>
		</g>
	</g>
</g>
</svg>
