<?xml version="1.0" encoding="utf-8"?>
<!-- Generator: Adobe Illustrator 24.0.0, SVG Export Plug-In . SVG Version: 6.00 Build 0)  -->
<svg version="1.1" id="Layer_1" xmlns="http://www.w3.org/2000/svg" xmlns:xlink="http://www.w3.org/1999/xlink" x="0px" y="0px"
	 viewBox="0 0 36 36" style="enable-background:new 0 0 36 36;" xml:space="preserve">
<style type="text/css">
	.st0{fill-rule:evenodd;clip-rule:evenodd;fill:#5B6B92;}
</style>
<title>Fill 1</title>
<desc>Created with Sketch.</desc>
<g id="Page-1">
	<g id="Artboard备份3" transform="translate(-2911.000000, -1706.000000)">
		<path id="Fill-1" class="st0" d="M2923.6,1735.3l-10.6-10.8c-1.1-1.1-1.1-2.9,0-4c1.1-1.1,2.8-1.1,3.9,0c0,0,0,0,0,0l6.7,6.8
			c0.9,0.9,2.5,1,3.4,0c0,0,0,0,0,0l14.2-14.4c1.1-1.1,2.8-1.1,3.9,0c0,0,0,0,0,0c1.1,1.1,1.1,2.9,0,3.9l-18.1,18.3
			C2926.1,1736.2,2924.5,1736.2,2923.6,1735.3C2923.6,1735.3,2923.6,1735.3,2923.6,1735.3z"/>
	</g>
</g>
</svg>
